<?xml version="1.0" encoding="utf-8"?>
<!-- Generator: Adobe Illustrator 24.3.0, SVG Export Plug-In . SVG Version: 6.00 Build 0)  -->
<svg version="1.0" id="Layer_1" xmlns="http://www.w3.org/2000/svg" xmlns:xlink="http://www.w3.org/1999/xlink" x="0px" y="0px"
	 viewBox="0 0 14400 14400" style="enable-background:new 0 0 14400 14400;" xml:space="preserve">
<style type="text/css">
	.st0{fill:#616957;}
	.st1{fill:#859178;}
</style>
<g>
	<g>
		<path class="st0" d="M9337.54,10803.43c2.48,429.83-8.6,769.85-36.04,1109.24c-12.58,155.56-27.76,311.08-48.07,465.9
			c-8.66,65.99,13.78,112.78,57.99,162.12c268.29,299.46,568.84,568.91,880,829.09c443.23,370.6,916.18,704.54,1420.95,999.58
			c340.95,199.29,705.16,352.19,1088.13,467.3c77.85,23.4,155.51,47.39,233.89,69.17c64.97,18.06,126.01,39.03,200.25,17.53
			c72.65-21.04,147.83,51.21,151.92,128.6c8.39,158.73-79.05,257.06-250.91,281.48c-91.65,13.03-180.77-4.83-268.49-24.74
			c-193.37-43.9-375.56-116.29-554.93-195.14c-335.64-147.53-654.98-321.97-967.49-507.35
			c-929.23-551.23-1794.21-1179-2594.83-1882.89c-45.23-39.77-94.33-67.27-151.77-87.02
			c-1505.42-517.66-2810.12-1319.71-3918.26-2395.85C3540.92,9231.52,2768.81,8066.49,2243.86,6759.57
			c-241.49-601.24-419.45-1218.75-537.85-1850.62c-68.71-366.66-114.54-736.03-142.48-1107.73
			c-28.86-384.06-28.22-768.09-16.07-1152.08c8.22-259.79,34.58-518.86,66.46-777.46c64.29-521.65,170.68-1035.46,316.06-1542.62
			C2022,8.02,2134.23-306.91,2253.53-620.02c34.72-91.13,94.08-168.62,135.61-255.53c26.43-55.32,93.83-70.52,155.1-44.28
			c31.09,13.31,60.13,31.12,88.99,48.48C3663.44-251.66,4585.74,485.31,5407.95,1330.71
			c1018.94,1047.69,1842.33,2215.33,2482.44,3494.82C8404.4,5853,8782.93,6921.84,9026.65,8032.11
			c94.73,431.52,168.79,865.91,221.58,1303.26c29.26,242.45,48.41,485.93,65.95,729.56
			C9334.03,10340.86,9332.78,10616.88,9337.54,10803.43z M6718.89,9315.58c-67.26-28.13-124.69-70.12-183.84-110.1
			c-100.75-68.11-198.79-141.19-306.18-199.04c-245.58-132.29-493.9-260.56-745.21-383.22
			c-312.64-152.61-616.19-318.67-911.78-497.96c-271.22-164.51-522.79-350.52-746.24-568.84
			c-65.33-63.83-133.46-125.19-200.46-187.53c-18.26-16.99-35.8-34.98-55.99-49.79c-37.39-27.43-81.22-27.23-118.75-0.69
			c-13.62,9.63-26.1,21.03-37.43,32.99c-38.53,40.65-42.82,72.74-11.15,119.54c22.78,33.66,47.84,66.71,76.6,96.06
			c159.68,162.93,341.7,304.17,515.48,453.4c12.45,10.69,29.24,16.89,42.73,26.7c196.47,142.82,400.32,275.62,613.5,396.28
			c194.68,110.19,389.72,219.69,591.21,318.95c159.75,78.69,320.52,155.63,479.46,235.71c102,51.4,204.14,103.27,301.61,161.58
			c267.44,160.01,529.53,326.82,770.73,520.96c201.96,162.56,396.27,328.29,537.57,544.21c93.36,142.67,209.84,272.38,317.25,407.02
			c186.62,233.95,374.11,467.31,561.71,700.58c12.79,15.9,28.98,29.61,44.59,43.35c46.89,41.28,108.92,44.52,156.72,20.37
			c100.92-50.99,120.04-106.85,40.9-190.84c-5.48-5.82-13.51-10.06-21.14-13.57c-40.39-18.61-62.68-52.07-88.69-84.54
			c-166.65-208.01-335.49-414.52-504.16-621.13c-106.39-130.33-219.31-256.27-312.25-395.62
			c-90.54-135.75-181.11-271.53-268.13-409.23c-130.6-206.67-261.48-413.17-381.68-625.43
			c-112.38-198.44-199.71-407.21-300.74-610.3c-47.62-95.73-68.46-194.66-65.11-301.48c2.16-68.86,27.46-133.54,26.71-201.37
			c-1.11-100.62,23.78-197.57,44.83-295.01c26.97-124.87,56.9-249.19,84.67-373.93c57.24-257.14,112.3-514.72,171.28-771.51
			c47.39-206.33,86.18-413.94,111.54-623.43c8.62-71.23,7.38-144.24,2.35-215.93c-5.42-77.27,25.04-149.18,27.7-225.56
			c3.25-93.34-22.84-182.1-32.15-273.2c-6.06-59.34-51.49-99.53-114.98-117.72c-61.36-17.58-125.79,17.24-136.59,76.36
			c-4.26,23.3-7.81,49.94,0.03,71.38c38.62,105.64,19.87,214.12,22.84,321.4c1.55,55.91,7.12,113.95-6.13,167.4
			c-14.78,59.63-21.91,118.62-17.67,178.13c7.49,105.12-18.99,207.12-35.54,308.73c-26.85,164.88-75.15,326.68-112,490.24
			c-39.49,175.26-75.63,351.16-114.31,526.58c-36.78,166.81-74.96,333.35-112.42,499.52c-23.84-0.48-32.27-14.47-37.22-29.96
			c-15.86-49.64-28.49-100.26-46.34-149.25c-81.29-223.13-164.39-445.7-246.03-668.72c-174.39-476.38-346.08-953.63-523.62-1428.99
			c-58.37-156.28-91.93-314.61-94.48-479.35c-0.31-19.95,1.89-41.6-5.5-59.47c-24.05-58.17-18.67-118.29-18.92-178.03
			c-1-240.17-1.15-480.34-1.83-720.5c-0.09-32,5.99-66.02-3.47-95.6c-27.69-86.58-16.97-174.56-20.5-262.11
			c-6.1-151.31,3.25-302.14-21.19-454.16c-24.02-149.38-48.68-298.52-77.13-447.25c-14.22-74.36-19.33-150.19-32.65-224.73
			c-11.88-66.46-22.09-134.47-46.29-197.41c-28.92-75.23-95.82-102.3-163.78-79.89c-59.08,19.48-82.45,74.14-66.04,150.74
			c15.02,70.14,35.65,140.06,41.35,210.94c10.58,131.54,44.66,259.26,64.6,389.2c18.15,118.24,48.3,234.78,42.51,355.44
			c-1.15,23.93-4.71,49.59,2.52,71.73c32.01,98.09,20.22,198.42,21.32,297.93c1.81,164.1,1.25,328.23,0.54,492.34
			c-0.1,22.15,8.94,46.21-9.09,67.1c-29.29-8.6-32.5-33.67-40.56-55.18c-33.9-90.48-65.76-181.65-101.36-271.55
			c-68.25-172.31-138.52-343.93-207.99-515.83c-60.4-149.44-118.25-299.83-181.94-448.06c-79.62-185.32-163.42-369.11-246.67-553.07
			c-56.63-125.15-118.66-248.26-172.24-374.5c-47.51-111.94-116.25-214.9-161.41-326.74c-61.04-151.16-152.44-287.08-238.08-424.77
			c-111.68-179.55-227.73-357.28-342.92-535.1c-159.34-245.97-319.13-492.55-452.12-752.6c-10.75-21.02-29.47-39.42-47.65-56.07
			c-38.51-35.28-102.59-44.3-142.41-22.55c-41.48,22.67-73.7,92.77-55.09,137.47c21.66,52.04,49.47,102.24,78.69,151.13
			c60.49,101.23,123.26,201.3,185.87,301.43c107.95,172.64,213.13,346.88,325.53,517c198.32,300.15,379.85,608.5,542.24,926.6
			c16.51,32.35,28.35,66.82,41.22,100.68c4.33,11.38,2.95,26.55-9.95,30.11c-10.09,2.78-26.62-1.35-34.84-8.11
			c-45.13-37.12-87.11-77.6-132.94-113.92c-88.14-69.86-177.93-137.93-267.41-206.32c-72.92-55.74-144.44-113.27-220.02-165.75
			c-147.96-102.74-298.62-202.12-447.58-303.62c-96.96-66.07-192.5-133.94-289.47-200c-46.56-31.72-102.87-32.7-144.1-5.63
			c-44.28,29.07-53.8,69.85-46.29,116.68c4.07,25.42,21.98,42.61,39.59,60.28c67.8,68.02,151.11,117.96,231.12,171.85
			c139.13,93.7,277.4,188.5,416.55,282.16c135.75,91.37,263.53,191.87,394.13,289.22c117.63,87.68,222.02,188.11,338.12,277.16
			c149.56,114.72,263.8,262.24,381.14,405.05c28.85,35.11,55.41,72.15,91.75,99.91c55.79,42.61,86.53,99.27,112.79,158.45
			c31.09,70.07,58.27,141.65,86.83,212.69c58.61,145.81,116.94,291.71,175.52,437.53c72.11,179.48,149.94,357.18,215.49,538.7
			c174.98,484.54,343.6,971.06,517.02,1456.09c88.06,246.29,180.99,491.07,271.91,736.48c6.8,18.34,17.61,36.21-1.08,54.98
			c-37.55-6.06-53.41-37.93-78.6-58.35c-119.68-97.02-200.84-229.79-336.04-312.51c-167.49-161.67-356.56-300.05-548.26-435.35
			c-205.22-144.84-409.05-291.39-622.91-425.52c-117.4-73.63-230.26-153.57-343.95-232.18
			c-113.77-78.66-220.58-165.09-328.52-250.57c-131.51-104.14-255.15-213.06-363.52-338.35c-48.58-56.17-96.45-112.06-138.77-172.42
			c-16.24-23.16-37.39-44.02-59.3-62.94c-39.53-34.13-86.65-33.15-132.69-14.63c-43.1,17.34-64.41,61.84-61.12,109.98
			c2,29.33,13.36,55.97,30.95,77.87c69.32,86.27,133.89,177.38,214.07,254.26c143.54,137.64,285.84,276.42,446.74,398.68
			c156.54,118.95,319.04,229.76,481.69,340.73c148.86,101.56,300.36,199.76,449.27,301.25c131.51,89.64,264.76,177.58,390.51,273.85
			c159.07,121.77,318.88,242.86,466.77,377.15c160.27,145.54,308.75,300.9,459.72,454.29c14.39,14.62,24.81,32.55,38.45,47.88
			c90.19,101.37,160.42,217.83,268.28,305.84c30.25,24.68,47.5,57.52,59.39,91.64c88.64,254.44,178.12,508.65,263.1,764.16
			c77.28,232.37,151.17,465.63,262.37,686.75c5.47,10.88,11.11,21.69,16.36,32.66c66.4,138.62,131.5,277.79,199.6,415.69
			c35.9,72.7,77,143.19,115.75,214.68c17.5,32.28,35.32,64.49,29.48,102.55L6718.89,9315.58z"/>
		<path class="st1" d="M6719.1,9315.35c5.84-38.06-11.98-70.27-29.48-102.55c-38.75-71.49-79.85-141.98-115.75-214.68
			c-68.1-137.9-133.2-277.07-199.6-415.69c-5.25-10.97-10.89-21.78-16.36-32.66c-111.2-221.11-185.09-454.38-262.37-686.75
			c-84.98-255.5-174.46-509.72-263.1-764.16c-11.89-34.12-29.14-66.96-59.39-91.64c-107.86-88.01-178.1-204.46-268.28-305.84
			c-13.64-15.33-24.06-33.26-38.45-47.88c-150.97-153.39-299.44-308.75-459.72-454.29c-147.89-134.29-307.71-255.38-466.77-377.15
			c-125.75-96.27-259-184.22-390.51-273.85c-148.91-101.49-300.42-199.7-449.27-301.25c-162.65-110.97-325.15-221.78-481.69-340.73
			c-160.9-122.26-303.19-261.04-446.74-398.68c-80.18-76.88-144.75-167.98-214.07-254.26c-17.6-21.9-28.96-48.55-30.95-77.87
			c-3.28-48.14,18.03-92.64,61.12-109.98c46.04-18.52,93.16-19.5,132.69,14.63c21.91,18.92,43.06,39.78,59.3,62.94
			c42.32,60.35,90.18,116.25,138.77,172.42c108.37,125.3,232.02,234.21,363.52,338.35c107.94,85.48,214.75,171.91,328.52,250.57
			c113.69,78.61,226.56,158.55,343.95,232.18c213.87,134.14,417.69,280.68,622.91,425.52c191.7,135.3,380.77,273.67,548.26,435.35
			c135.21,82.72,216.36,215.48,336.04,312.51c25.19,20.42,41.05,52.28,78.6,58.35c18.69-18.77,7.87-36.64,1.08-54.98
			c-90.92-245.4-183.85-490.19-271.91-736.48c-173.43-485.03-342.04-971.55-517.02-1456.09
			c-65.55-181.52-143.38-359.22-215.49-538.7c-58.59-145.81-116.91-291.72-175.52-437.53c-28.56-71.04-55.74-142.61-86.83-212.69
			c-26.26-59.18-57-115.84-112.79-158.45c-36.34-27.76-62.9-64.79-91.75-99.91c-117.34-142.81-231.58-290.33-381.14-405.05
			c-116.1-89.05-220.49-189.48-338.12-277.16c-130.59-97.35-258.38-197.85-394.13-289.22c-139.16-93.67-277.42-188.47-416.55-282.16
			c-80.02-53.89-163.32-103.83-231.12-171.85c-17.61-17.67-35.52-34.87-39.59-60.28c-7.5-46.83,2.01-87.61,46.29-116.68
			c41.24-27.07,97.54-26.1,144.1,5.63c96.97,66.06,192.51,133.93,289.47,200c148.96,101.5,299.62,200.89,447.58,303.62
			c75.58,52.48,147.1,110.01,220.02,165.75c89.48,68.39,179.27,136.46,267.41,206.32c45.83,36.32,87.81,76.81,132.94,113.92
			c8.22,6.76,24.74,10.89,34.84,8.11c12.9-3.55,14.27-18.73,9.95-30.11c-12.88-33.86-24.71-68.33-41.22-100.68
			c-162.39-318.1-343.92-626.45-542.24-926.6c-112.4-170.12-217.58-344.35-325.53-517c-62.61-100.13-125.37-200.2-185.87-301.43
			c-29.22-48.9-57.02-99.09-78.69-151.13c-18.61-44.7,13.61-114.81,55.09-137.47c39.82-21.76,103.9-12.73,142.41,22.55
			c18.17,16.65,36.9,35.05,47.65,56.07c132.99,260.04,292.78,506.63,452.12,752.6c115.19,177.81,231.24,355.55,342.92,535.1
			c85.64,137.69,177.04,273.6,238.08,424.77c45.16,111.85,113.9,214.8,161.41,326.74c53.58,126.23,115.61,249.35,172.24,374.5
			c83.24,183.96,167.04,367.75,246.67,553.07c63.69,148.23,121.54,298.61,181.94,448.06c69.47,171.9,139.74,343.52,207.99,515.83
			c35.61,89.9,67.46,181.07,101.36,271.55c8.06,21.51,11.28,46.59,40.56,55.18c18.03-20.89,8.99-44.95,9.09-67.1
			c0.71-164.11,1.26-328.24-0.54-492.34c-1.09-99.51,10.69-199.83-21.32-297.93c-7.23-22.14-3.67-47.79-2.52-71.73
			c5.8-120.67-24.36-237.2-42.51-355.44c-19.94-129.94-54.02-257.67-64.6-389.2c-5.7-70.88-26.33-140.79-41.35-210.94
			c-16.41-76.61,6.96-131.26,66.04-150.74c67.96-22.41,134.86,4.66,163.78,79.89c24.2,62.94,34.41,130.95,46.29,197.41
			c13.32,74.54,18.43,150.37,32.65,224.73c28.45,148.73,53.11,297.87,77.13,447.25c24.45,152.02,15.09,302.85,21.19,454.16
			c3.53,87.55-7.19,175.53,20.5,262.11c9.46,29.59,3.38,63.61,3.47,95.6c0.67,240.17,0.83,480.34,1.83,720.5
			c0.25,59.73-5.14,119.86,18.92,178.03c7.39,17.86,5.19,39.52,5.5,59.47c2.55,164.74,36.11,323.06,94.48,479.35
			c177.55,475.37,349.23,952.61,523.62,1428.99c81.64,223.02,164.73,445.59,246.03,668.72c17.85,48.99,30.48,99.61,46.34,149.25
			c4.95,15.5,13.39,29.48,37.22,29.96c37.45-166.17,75.63-332.71,112.42-499.52c38.68-175.42,74.82-351.32,114.31-526.58
			c36.85-163.56,85.15-325.36,112-490.24c16.55-101.61,43.03-203.61,35.54-308.73c-4.24-59.5,2.89-118.49,17.67-178.13
			c13.25-53.45,7.68-111.49,6.13-167.4c-2.97-107.27,15.79-215.76-22.84-321.4c-7.84-21.43-4.28-48.07-0.03-71.38
			c10.8-59.12,75.24-93.94,136.59-76.36c63.49,18.19,108.92,58.39,114.98,117.72c9.31,91.1,35.4,179.86,32.15,273.2
			c-2.66,76.38-33.12,148.29-27.7,225.56c5.03,71.69,6.27,144.7-2.35,215.93c-25.37,209.49-64.15,417.1-111.54,623.43
			c-58.98,256.8-114.04,514.37-171.28,771.51c-27.77,124.73-57.69,249.05-84.67,373.93c-21.05,97.44-45.94,194.39-44.83,295.01
			c0.75,67.82-24.55,132.5-26.71,201.37c-3.34,106.83,17.49,205.75,65.11,301.48c101.03,203.09,188.36,411.85,300.74,610.3
			c120.2,212.25,251.08,418.76,381.68,625.43c87.02,137.7,177.59,273.49,268.13,409.23c92.95,139.36,205.87,265.3,312.25,395.62
			c168.67,206.61,337.5,413.12,504.16,621.13c26.02,32.47,48.31,65.93,88.69,84.54c7.62,3.51,15.65,7.75,21.14,13.57
			c79.14,83.99,60.02,139.85-40.9,190.84c-47.81,24.15-109.84,20.91-156.72-20.37c-15.61-13.75-31.8-27.45-44.59-43.35
			c-187.6-233.27-375.09-466.63-561.71-700.58c-107.4-134.64-223.89-264.35-317.25-407.02
			c-141.29-215.92-335.61-381.65-537.57-544.21c-241.2-194.14-503.28-360.94-770.73-520.96c-97.46-58.31-199.6-110.18-301.61-161.58
			c-158.93-80.08-319.71-157.01-479.46-235.71c-201.48-99.25-396.53-208.75-591.21-318.95
			c-213.19-120.67-417.03-253.46-613.5-396.28c-13.49-9.8-30.28-16-42.73-26.7c-173.78-149.23-355.8-290.47-515.48-453.4
			c-28.76-29.34-53.82-62.39-76.6-96.06c-31.67-46.8-27.37-78.88,11.15-119.54c11.33-11.96,23.81-23.36,37.43-32.99
			c37.53-26.54,81.37-26.74,118.75,0.69c20.19,14.81,37.72,32.8,55.99,49.79c67.01,62.34,135.14,123.7,200.46,187.53
			c223.45,218.32,475.02,404.33,746.24,568.84c295.59,179.29,599.14,345.36,911.78,497.96
			c251.31,122.67,499.63,250.93,745.21,383.22c107.39,57.85,205.42,130.93,306.18,199.04c59.15,39.99,116.58,81.98,183.84,110.1
			c1.41,2.73,2.31,5.9,4.42,8.04c1.29,1.31,4.44,1.05,6.75,1.49C6726.41,9321.86,6722.76,9318.6,6719.1,9315.35z"/>
		<path class="st0" d="M6719.1,9315.35c3.65,3.25,7.31,6.51,10.96,9.76c-2.31-0.44-5.46-0.18-6.75-1.49
			c-2.11-2.14-3.01-5.31-4.42-8.04C6718.89,9315.58,6719.1,9315.35,6719.1,9315.35z"/>
	</g>
</g>
</svg>
