<?xml version="1.0" encoding="utf-8"?>
<!-- Generator: Adobe Illustrator 24.3.0, SVG Export Plug-In . SVG Version: 6.00 Build 0)  -->
<svg version="1.0" id="Layer_1" xmlns="http://www.w3.org/2000/svg" xmlns:xlink="http://www.w3.org/1999/xlink" x="0px" y="0px"
	 viewBox="0 0 14400 14400" style="enable-background:new 0 0 14400 14400;" xml:space="preserve">
<style type="text/css">
	.st0{fill:#9BA88E;}
	.st1{fill:#BA9CFD;}
	.st2{fill:#C9AEFE;}
	.st3{fill:#96A289;}
	.st4{fill:#939E87;}
	.st5{fill:#AEBDA0;}
	.st6{fill:#9CA990;}
	.st7{fill:#B2C1A5;}
	.st8{fill:#CCB0FF;}
	.st9{fill:#8C977F;}
	.st10{fill:#CBB0FF;}
	.st11{fill:#A0AD95;}
	.st12{fill:#C8CFC1;}
	.st13{fill:#D5DBD0;}
	.st14{fill:#AAB99B;}
</style>
<g>
	<g>
		<path class="st0" d="M6934.68,14743.53c-54.12,85.94-99.08,174.34-191.55,234.92c-80.34,52.63-150.55,32.71-203.1-41.98
			c-57.66-81.96-48.22-172.06-22.82-262.89c62.02-221.74,159.53-431,281.5-621.86c155.82-243.85,192.9-504.93,192.84-781.97
			c-0.14-741.43-4.52-1482.94,5.46-2224.26c7.52-558.71,32.26-1117.25,54.7-1675.65c5.47-136.21,30.21-271.82,49.1-407.29
			c89.76-643.68,150.99-1290.32,204.12-1937.86c5.58-68.06,19.25-135.47,29.3-203.08c27.59-3.07,55.05-6.24,82.51-9.42l12.09,18.12
			c-2.94,285.71-15.85,571.75-6.18,857.03c10.92,322.32-64.83,631.72-106.45,946.68c-38.61,292.14-112.97,580.26-103.09,878.74
			c6.05,182.71,3.34,365.83,0.05,548.69c-1.84,102.3,5.6,210.23-24.23,305.24c-42.48,135.3-43.36,269.8-42.91,406.44
			c1.56,466.83-18.55,933.85,64.34,1398.15c34.27,191.95,16.67,195.09,244.89,237.94c54.63-70.29,32.56-152.94,32.94-230.32
			c2.16-434.41-0.4-868.84,2.33-1303.25c0.64-102.01-0.67-208.71,27.78-304.69c36.85-124.28,37.72-247.55,38.22-372.8
			c1.05-262.94-0.39-525.88,1.21-788.81c0.49-79.8-11.21-166.62,15.51-237.91c58.4-155.81,51.53-314.18,52.63-473.6
			c0.71-103,26.71-203.2,37.04-303.45c30.24-293.54,114.24-580.41,101.8-879.5c-9.5-228.28-3.77-457.18-4.81-685.81
			c46.15-19.35,92.29-38.69,138.44-58.04c6.39,364.71-6.25,727.04-47,1091.29c-51.85,463.52-47.44,933.14-93.21,1397.57
			c-109.9,1115.21-42.85,2232.79-66.57,3349.03c-3.96,186.32,18.35,361.04,105.1,528.09c133.88,257.78,171.02,542.72,210.11,824.55
			c26.5,191,29.46,385.27,42.88,577.97c-87.02-18.23-140.89,15.73-161.36,102.31c-206.32,5.99-227.63-6.26-272.17-154.99
			c-15.84-52.88-32.45-105.53-48.79-157.82c-7.06-88.38,5.86-179.82-39.5-263.46c-20.83-38.41-95.1-65.38-112.26-33.89
			c-88.63,162.65-287.07,263.84-270.52,485.78c5.77,77.39-32.52,126.48-111.21,143.03
			C6987.34,14670.31,6955.11,14700.75,6934.68,14743.53z"/>
		<path class="st1" d="M7898.34,6771.06c-46.14,19.35-92.29,38.69-138.4,58.14c-110.35,0.44-220.73,0.78-331.11,1.13
			c0,0-12.09-18.12-11.94-17.86c-30.85-12.49-61.86-25.24-92.86-37.99c-11.44-9.05-23.83-16.54-37.14-22.28
			c-21.25-14.99-42.52-30.17-63.79-45.35c0.66-77.14,28.49-137.22,114.6-135.48c55.01,1.11,111.02,17.09,164.15,34.03
			c151.19,48.2,289.55,44.45,405.92-80.83c85.91-92.49,191.2-123.69,308.08-72.42c104.53,45.85,180.74,18.19,222.56-79.34
			c28.11-65.56,123.52-108.02,78.87-203.57c-98.54-29.75-204.79-7.12-299.28-56.5c-42.18-22.05-93.62-7.61-124.39,28.27
			c-156.53,182.55-359.96,176.51-561.99,126.44c-100.47-24.9-168.55-12.31-248.59,47.02c-80.23,59.47-169.72,121.27-279.94,98.29
			c-87.15-18.17-169.23-75.87-262.57-38.52c-114.31,45.75-38.79,198.54-138.48,254.67c-75.81-117.2-96.68-256.73-222.94-358.09
			c-145.02-116.4-117.9-299.19-56.82-470.69c47.8-134.18,122.87-211.39,270.49-201.98c0.55,58.63-14.95,110.71-50.02,159.57
			c-39.64,55.22-72.2,115.5-108.15,173.39c-51.29,82.59-14.98,153.45,31.51,221.2c54.71,79.72,121.15,41.81,179.27,8.25
			c110.82-63.99,206.61-63.57,309.52,24.46c63.41,54.24,160.33,57.93,225.71,7.78c151.76-116.41,305.48-137.27,479.15-61.06
			c67.61,29.67,134.91,11.11,190.6-37.78c42.83-37.6,84.99-76.27,124.42-117.38c79.12-82.49,166.19-113.48,276.48-61.4
			c96.67,45.64,200.96,36.97,302.98,24.14c88.41-11.13,144.69-64.52,160.18-153.14c7.8-44.58,9.19-90.79,8.65-136.2
			c-1.38-116.66-16.44-248.38-136.15-285.09c-106.62-32.69-180.66,66.45-239.25,156.12c-75.02,114.83-183.62,161-321.99,153.75
			c-124.66-6.52-248.68-5.7-370.46,43.73c-59.84,24.28-138.07,29.08-201.11,14.01c-112.64-26.93-217.58-38.59-331.38-1.39
			c-79.11,25.86-169.2,5.46-212.29-71.64c-86.21-154.24-197.11-119.47-317.77-59.87c-64.84-232.97-92.5-466.64-8.84-701.22
			c19.83-55.62,24.3-109.07,1.35-164.86c-17.18-41.77-47.56-87.51-42.28-127.55c27.76-210.78-49.02-395.24-130.52-579.84
			c39.64-21.21,79.6-43.3,125.73-17.94c48.98,26.92,96.1,74.82,146.46,78.27c141.98,9.76,229.36,65.42,270.54,208.4
			c23.57,81.84,101.45,77.27,168.94,44.07c59.38-29.21,111.29-113.16,176.17-83.49c135.76,62.08,212.32-10.31,295.91-91.38
			c54.49-52.85,117.81-68.43,181.28-15c73.17,61.61,154.83,102.72,249.25,73.06c169.67-53.31,356.2-67.06,494.54-198.84
			c121.31,79.91,142.21,203.88,129.91,331.74c-19.05,197.94,13.1,384.01,93.81,563.97c13.85,30.88,30.54,65,29.71,97.21
			c-6.6,256.3,33.84,486.41,234.05,680.52c99.21,96.19,33.78,335.79-114.37,415.34c-132.84,71.32-213.1,159.67-254.79,297.45
			c-24.94,82.43-90.24,131.54-166.85,159.99c-106.26,39.45-213.29,82.99-323.91,102.64
			C8055.74,6688.69,7974.75,6720.11,7898.34,6771.06z M6666.39,5098.61c3.4,134.1,30.6,191.7,164.05,220.09
			c101.51,21.59,162.78,57.75,198.44,154.69c20.48,55.68,80.47,46.75,114.55,17.61c91.36-78.12,173.63-93.98,269.31-5.7
			c66.63,61.47,150.36,62.18,217.84,2.78c98.58-86.79,198.06-98.36,313.31-39.98c28.51,14.45,66.42,13.14,100.12,13.87
			c47.89,1.05,100.58-14.76,111.25-61.07c37.76-163.96,152.1-213.62,301.28-223.96c20.16-1.39,40.14-19.93,58.3-33.14
			c68.36-49.71,92.79-178.75,37.48-245.12c-55.3-66.36-126.39-43.67-180.93,2.41c-106.59,90.04-230.46,114.78-351.06,65.68
			c-112.4-45.76-199.45-13.4-290.29,35.64c-95.62,51.63-193.34,71.05-294.35,24.9c-72.14-32.97-125.42-7.04-189.67,27.18
			c-167.38,89.15-190.31,81.91-319.17-53.33c-31.06-32.59-52.71-74.25-84.31-106.19c-42.15-42.61-85.64-17.06-119.28,13.79
			C6668.12,4959.35,6665,5029.14,6666.39,5098.61z M8376.41,4510.09c8.15-140.51-112.76-239.75-211.56-156.54
			c-108.69,91.54-222.34,103.31-348.17,44.34c-53.92-25.27-113.6-32.58-164.25-1.88c-150.42,91.19-326.52,89.19-485.34,142.73
			c-148.23,49.97-239.69,5.07-324.92-102.52c-20.85-26.31-38.9-57.61-65.6-75.82c-34.93-23.82-65.52,1-79.61,32.51
			c-56.31,125.86-32.72,218.44,79.18,242.46c107.83,23.15,182.26,64.57,244.22,160.09c75.85,116.95,87.58,112.52,244.21,40.3
			c42.18-19.45,85.56-51.17,126.1-27.97c159.55,91.3,255.01-12.34,356.8-106.29c47.02-43.41,100.53-47.15,155.18-12.61
			c38.3,24.2,73.01,57.69,114.51,72.6C8189.3,4823.33,8365.77,4697.8,8376.41,4510.09z"/>
		<path class="st2" d="M6876.33,530.84c-11.8-133.44,55.61-243.04,112.82-353.43c56.29-108.61,58.65-204.29,7.54-320.74
			c-75.23-171.41,13.13-320.75,197.8-345.58c135.19-18.18,266.28-25.44,395.96-86.23c192.74-90.34,437.61,13.28,494.76,216.99
			c35.67,127.15,76.05,227.21,183.74,309.58c71.48,54.68,123.75,156.85,81.92,244.73c-59.37,124.71,22.96,220.31,31.66,329.44
			c-37.03,28.53-65.54,63.04-67.64,111.81c-4.67,108.64-56.96,165.17-168.92,168.26c-71.72,1.97-123.35,51.95-179.17,90.1
			c-48.87,33.4-108.38,54.12-160.95,35.08c-174.46-63.17-354.92-54.29-534.96-65.27c-194.36-11.86-339.2-97.58-370.6-311.46
			C6899.01,545.37,6884.61,538.56,6876.33,530.84z"/>
		<path class="st1" d="M6876.33,530.84c8.29,7.71,22.68,14.53,23.96,23.27c31.4,213.88,176.24,299.6,370.6,311.46
			c180.04,10.98,360.5,2.11,534.96,65.27c52.57,19.04,112.08-1.68,160.95-35.08c55.83-38.15,107.45-88.13,179.17-90.1
			c111.95-3.08,164.25-59.62,168.92-168.26c2.1-48.77,30.61-83.27,67.64-111.81c94.39,111.23,80.32,227.83,14.62,345.14
			c-26.99,48.19-76.65,85.18-67.82,165.51c34.07,27.02,80.45,58.08,119.99,96.23c133.79,129.04,141.59,192.22,50.45,358.3
			c-10.9,19.86-19.54,42.66-35.22,57.93c-169.84,165.35-196.3,346.58-72.28,551.96c42.19,69.87,59.29,158.78,21.66,229.75
			c-76.25,143.81-2.45,262.45,40.06,388.58c-0.05,0.03-4.94,3.86-4.94,3.86c-129.61-28.57-258.57-82.79-384.97,16.85
			c-43.76,34.49-107.38,63.51-158.68,37.17c-137.62-70.68-263.78,15-395.37,15.35c-134.36,0.36-269.79-14.39-399.78,45.66
			c-80.32,37.11-160.22,6.36-213.24-59.27c-98.48-121.9-229.28-131.16-368.23-123.93l-2.63-2.53c5.96-21.9,15.01-42.45,26.92-61.65
			c32.23-10.09,66.4-16.52,96.84-30.87c112.02-52.78,214.82-66.23,306.33,42.43c39.77,47.22,100.33,55.88,155.82,30.2
			c79.61-36.84,150.78-15.69,229.5,5.95c98.73,27.15,206.15,35.83,292.6-36.86c79.78-67.09,154.76-70.31,250.32-32.67
			c90.1,35.48,177.24,15.63,236.23-77.89c23.5-37.25,62.31-64.89,94.42-96.65c109.98-108.78,107.48-179.47,1.94-278.59
			c-116.05-108.98-257.37-97.05-384.88-61.5c-92.06,25.67-163.1,118.77-251.97,165.81c-110.05,58.25-217.15-82.83-327.48-25.13
			c-170.09,88.94-302.56,23.29-435.13-79.8c-43.95-34.18-100.23-52.52-150.87-78.1c8.88-68.38,17.75-136.77,26.42-205.18
			c142.43-5.18,276.91-0.1,320.81,178.04c20.53,83.33,90.92,106.41,159.72,73.28c102.14-49.18,193.47-22.92,296-4.68
			c127.11,22.61,173.36-137.5,284.71-164.45c54.61-13.21,112.87-10.65,169.14-17.83c97.5-12.44,169.08-59.88,203.78-155.83
			c-52.11-72.41-138.7-74.24-209.18-98.04c-123.18-41.6-254.95-121.18-378.17,13.3c-15.75,17.19-72.84,19.72-94.15,4.99
			c-217.35-150.22-479.21-108.37-716.09-171.75c-16.99-64.85-37.77-128.99-49.99-194.72c-14.71-79.15-16.25-157.95,60.38-212.75
			c22.77,37.53,42.17,77.74,69,112.17c83.61,107.3,178.75,228.45,322.51,208.05c118.59-16.83,215.64-29.49,312.59,51.06
			c20.23,16.81,69.23,16.93,95.98,4.83c112.68-50.94,217.22-31.86,329.69,5.98c72.61,24.42,156.21,19.64,235.02,21.24
			c86.12,1.74,157.37-33.5,188.2-117.95c31.92-87.45-15.48-152.37-76.38-209.46c-42.16-39.51-89.51-79.98-147.85-74.7
			c-229.69,20.8-447.12-62.21-672.2-73.01c-206.14-9.9-400.07-63.23-589.85-138.46C6800.92,751.69,6762.02,625.61,6876.33,530.84z"
			/>
		<path class="st3" d="M10216.18,14482.53c-142.7-17.21-217.77-106.13-248.72-238.63c-30.33-129.83-57.53-260.4-85.17-386.39
			c-79.03-8.98-113.14,35.25-139.65,86.11c-83.18,159.54-166.07,319.27-245.93,480.48c-35.58,71.81-70.99,141-150.6,173.27
			c-15.43-15.88-42.89-30.64-44.44-47.75c-19.96-220.24-109.4-430.52-94.09-655.59c160.05-341.83,362.22-663.75,483.7-1023.78
			c132.14-126.17,296.35-140,466.5-133c-57.63,207.66-61.55,419.74-65.21,633.85c-6.99,408.71,72.74,401.08,403.31,402.88
			c72.68,248.34-8.3,468.92-123.44,683.33C10320.35,14465.71,10268.26,14474.12,10216.18,14482.53z"/>
		<path class="st1" d="M6416.7,3874.51c-13.39-166.37-41.6-332.12,28.91-495.37c53.52-123.91,3.23-234.36-51.29-350.06
			c-85.53-181.5-53.77-251.11,131.85-376.89c-0.02-0.02,2.61,2.51,2.61,2.5c1.71,102.52,1.24,205.14,5.98,307.52
			c2.79,60.34,32.38,117.68,87.54,136.78c115.86,40.12,245.36,53.92,284.03,200.85c128.45-35.78,284.36,79.88,382.71-17.63
			c142.69-141.48,266.87-142.02,421.18-44.8c23.77,14.98,78.35,17.11,95.52,0.81c131.85-125.27,296.11-95.21,453.1-107.76
			c121.93-9.74,172.7-67.9,186.9-202.5c7.14-67.73,2.59-136.69,3.33-205.1c0,0,4.9-3.83,4.94-3.86
			c111.52,65.96,132.46,170.85,128.78,289.33c-5.17,166.54-25.53,329.96,21.58,499.39c42.32,152.19-59.05,274.98-167.92,378.27
			c-78.47-6.67-163.86,4.02-234.23-23.59c-155.48-60.99-313.83-31.89-470.86-41.38c-132.84-8.03-235.54,73.31-350.89,116.99
			c-123.69,46.83-237.35-92.43-362.18-18.4c-9.63,5.71-20.8,9.1-31.6,12.49c-137.73,43.31-266.93,40.34-380.92-63.82
			C6542.79,3810.75,6479,3848.04,6416.7,3874.51z M8378.39,3527.23c2.81-126.85-34.28-177.58-145.19-183.63
			c-112.96-6.17-225.91-12.85-336.41,30.3c-51.11,19.95-119.65,43.09-163.61,24.77c-141.93-59.16-262.49-22.05-388.36,41.97
			c-48.29,24.56-108.91,32.89-164.24,34.14c-191.04,4.31-385.24,29.36-554.74-103.17c-30.47-23.82-82.06,18.52-89.33,73.19
			c-7.92,59.51-0.94,116.21,53.06,149.84c47.04,29.31,112.5,36.59,132.41,97.1c44.47,135.16,129.47,128.01,242.1,89.16
			c72.78-25.1,155.81-20.61,234.28-29.02c56.09-6.02,127.37,8.41,165.65-20.73c140.65-107.1,280.91-121.53,442.51-55.11
			c47.48,19.51,117.24,12.47,166.98-7.2c90.9-35.95,171.67-26.91,263.46-3.21C8330.19,3689.69,8376.02,3634.55,8378.39,3527.23z"/>
		<path class="st4" d="M5053.66,13413.7c-153.8,449.88-248.11,913.12-310.4,1383.53c-89.8-1.07-179.6-2.14-269.4-3.22
			c-10.38-20.4-20.76-40.81-30.91-61.28c139.08-79.21,172.83-204.32,154.27-352.31c146.6-245.6,141.65-245.7,147.49-536.95
			c4.82-240.65-25.02-473.36-112.62-697.96c119.35-414.48,268.89-820.91,344.49-1246.98c22.07-124.36,72.1-215.55,193.55-254.39
			c66.61-21.31,135.52-19.06,188.73,38.68c43.09,46.76,38.08,97.71,23,157.07c-131.54,518-252.8,1038.31-328.7,1567.84
			C5053.31,13407.55,5053.66,13413.7,5053.66,13413.7z"/>
		<path class="st5" d="M4632.1,13145.52c87.61,224.59,117.45,457.3,112.62,697.96c-5.84,291.25-0.89,291.35-147.39,537.02
			c-84.78,2.68-169.67,5.3-254.55,7.92c-13.52-14.51-18.53-31.53-15-51.18c41.58-348.71-42.13-678.03-154.2-1002.98
			c-42.72-198.84-87.39-397.29-126.88-596.77c-10.68-53.93-13.03-111.88-6.2-166.36c11.4-90.97,69.63-143.41,154.03-151.23
			c83.35-7.72,159.94,1.72,196.98,92.41c34.08,83.43,67.96,166.96,99.78,251.26C4539.21,12890.5,4585.26,13018.16,4632.1,13145.52z"
			/>
		<path class="st6" d="M5778.87,11786.22c67.4-57.89,54.4-137.81,58.37-213.07c60.93-34.97,73.72-85.74,48.89-148.86
			c59.98-65.78,117.86-156.55,221.24-110.41c98.73,44.05,99.73,160.31,74.11,235.92c-64.76,191.16-32.38,405.64-152.4,583.69
			c-35.08,52.03-33.05,129.08-48.02,194.66c-62.94,37.92-64.78,93.6-45.21,155.5c-30.43,85.33-60.86,170.65-91.3,255.98
			c-136.94,239.69-166.84,320.6-184.51,499.27c-60.19,159.33-119.58,315.92-146.34,488.62c-23.63,152.46-105.88,295.83-162.2,443.27
			c-44.39,3.87-88.83,7.7-133.26,11.52c-19.3-184.98,11.04-367.56,26.58-550.84c70.32-86.51,52.65-184.24,35.79-281.87
			c25.06-111.69,50.12-223.38,75.21-335.08c100.09-73.24,119.86-183.81,144.82-295.39c29.44-131.63,49.31-272.02,111.55-388.13
			C5705.22,12157.44,5740.22,11972.81,5778.87,11786.22z"/>
		<path class="st7" d="M6050.59,12817.39c20.51-26.91,37.67-57.5,62.3-79.87c39.7-36.05,93.31-38.45,112.44,12.42
			c35.71,94.94,77.12,195.88,77.33,294.4c0.49,226.2,37.12,455.81-44.9,678.74c-22.59,61.41-18.67,134.83-16.82,202.46
			c2.88,105.17-9.45,206.44-63.76,296.98c-73.24,122.12-63.25,264.6-104.75,393.96c-22.03,68.68-113.95,86.08-168.79,38.97
			c-74.28-63.79-108.71-142.25-109.14-240.13c-1.6-364.45-32.49-730.08,56.75-1090.11c13.53-54.57,10.79-113.17,15.12-169.12
			C5957.81,13060.21,5993.89,12933.19,6050.59,12817.39z"/>
		<path class="st5" d="M10495.88,13773.99c-330.57-1.81-410.3,5.83-403.31-402.88c3.66-214.11,7.58-426.19,65.29-633.83
			c-4.58-45.4-9.24-90.82-13.9-136.25c6.57-24.78,13.14-49.56,19.7-74.34c30.51-96.5,52.69-196.8,94.31-288.25
			c30.23-66.42,97.61-90.91,172.39-63.49c111.6,40.91,192.49,103.89,220.14,232.82c41,191.16,44.85,379.79,17.57,572.44
			C10629.96,13249.24,10571.22,13513.29,10495.88,13773.99z"/>
		<path class="st8" d="M6666.73,2036.86c50.65,25.58,106.92,43.92,150.87,78.1c132.58,103.1,265.05,168.75,435.13,79.8
			c110.33-57.7,217.44,83.38,327.48,25.13c88.88-47.04,159.92-140.15,251.97-165.81c127.51-35.55,268.83-47.48,384.88,61.5
			c105.54,99.11,108.04,169.81-1.94,278.59c-32.1,31.76-70.92,59.4-94.42,96.65c-58.99,93.52-146.13,113.37-236.23,77.89
			c-95.56-37.64-170.54-34.42-250.32,32.67c-86.45,72.69-193.87,64-292.6,36.86c-78.72-21.64-149.89-42.79-229.5-5.95
			c-55.5,25.68-116.06,17.03-155.82-30.2c-91.51-108.66-194.3-95.21-306.33-42.43c-30.44,14.35-64.6,20.78-96.84,30.87
			c-9.81-31.56-14.7-66.08-30.76-94.23c-69.7-122.17-50.73-232.07,38.44-335.09C6596.39,2120.03,6631.42,2078.32,6666.73,2036.86z"
			/>
		<path class="st9" d="M10143.96,12601.03c4.66,45.43,9.32,90.85,13.9,136.25c-170.23-7.02-334.44,6.81-466.58,132.98
			c-96.04-124.26-192.31-248.37-288.16-372.8c-83.06-107.83-174.31-202.49-300.84-264.85c-92.46-45.57-163.85-121.22-139.79-242.63
			c92.49-15.7,90.1-92.05,101.75-159.44c391.83-28.47,673.82,151.05,882.74,467.45c49.89,75.56,96.43,153.34,144.51,229.84
			C10108.98,12552.04,10126.47,12576.53,10143.96,12601.03z"/>
		<path class="st10" d="M6602.05,6628.91c99.69-56.13,24.16-208.93,138.48-254.67c93.33-37.35,175.42,20.36,262.57,38.52
			c110.22,22.98,199.72-38.82,279.94-98.29c80.04-59.33,148.12-71.92,248.59-47.02c202.03,50.07,405.46,56.12,561.99-126.44
			c30.76-35.88,82.21-50.32,124.39-28.27c94.49,49.38,200.74,26.75,299.28,56.5c44.65,95.55-50.76,138.01-78.87,203.57
			c-41.82,97.54-118.03,125.19-222.56,79.34c-116.88-51.27-222.17-20.07-308.08,72.42c-116.37,125.28-254.72,129.03-405.92,80.83
			c-53.13-16.94-109.14-32.92-164.15-34.03c-86.11-1.74-113.94,58.34-114.71,135.43c-2.57,13.25-2.98,26.61-1.33,40.03
			c-45.93,9.71-91.86,19.42-137.86,29.1c-10.34-9.95-20.61-19.86-30.88-29.78c9.77,10.41,19.54,20.82,29.32,31.23
			c-71.28,108.34-175.03,146.91-291.98,103.08C6681.3,6839.64,6598.31,6762.34,6602.05,6628.91z"/>
		<path class="st8" d="M6416.7,3874.51c62.3-26.47,126.09-63.76,189.06-6.21c114,104.16,243.19,107.13,380.92,63.82
			c10.79-3.39,21.97-6.78,31.6-12.49c124.83-74.03,238.5,65.23,362.18,18.4c115.35-43.68,218.06-125.02,350.89-116.99
			c157.03,9.49,315.38-19.61,470.86,41.38c70.37,27.61,155.75,16.93,234.23,23.59c28.18,45.76,56.46,91.54,84.75,137.3
			c-138.31,131.76-324.85,145.51-494.52,198.82c-94.42,29.66-176.08-11.45-249.25-73.06c-63.47-53.44-126.79-37.85-181.28,15
			c-83.59,81.07-160.15,153.47-295.91,91.38c-64.88-29.67-116.78,54.28-176.17,83.49c-67.49,33.2-145.37,37.77-168.94-44.07
			c-41.18-142.98-128.57-198.64-270.54-208.4c-50.36-3.45-97.48-51.35-146.46-78.27c-46.14-25.37-86.09-3.27-125.73,17.94
			C6394.71,3975.05,6397.19,3924.54,6416.7,3874.51z"/>
		<path class="st8" d="M6806.83,871.02c189.78,75.23,383.71,128.56,589.85,138.46c225.08,10.8,442.51,93.81,672.2,73.01
			c58.34-5.28,105.7,35.19,147.85,74.7c60.91,57.09,108.31,122.01,76.38,209.46c-30.83,84.45-102.08,119.69-188.2,117.95
			c-78.81-1.59-162.41,3.19-235.02-21.24c-112.47-37.84-217.01-56.91-329.69-5.98c-26.75,12.09-75.75,11.98-95.98-4.83
			c-96.95-80.55-194-67.89-312.59-51.06c-143.76,20.4-238.9-100.75-322.51-208.05c-26.83-34.43-46.23-74.64-69-112.17
			C6742.87,1005.03,6739.1,926.69,6806.83,871.02z"/>
		<path class="st8" d="M6729.73,1488.74c236.88,63.37,498.74,21.52,716.09,171.75c21.31,14.73,78.4,12.2,94.15-4.99
			c123.23-134.48,254.99-54.9,378.17-13.3c70.47,23.79,157.07,25.62,209.18,98.04c-34.7,95.95-106.28,143.39-203.78,155.83
			c-56.27,7.17-114.53,4.61-169.14,17.83c-111.35,26.95-157.6,187.06-284.71,164.45c-102.53-18.24-193.86-44.5-296,4.68
			c-68.8,33.12-139.19,10.04-159.72-73.28c-43.9-178.14-178.39-183.22-320.81-178.04c-101.37-114.34-110.72-151.87-49.6-246.55
			C6666.64,1549.37,6700.68,1520.66,6729.73,1488.74z"/>
		<path class="st7" d="M9207.57,13894.03c-15.31,225.07,74.13,435.35,94.09,655.59c1.55,17.11,29.01,31.88,44.44,47.75
			c-9.12,47.43-31.89,92.58-80.88,96.61c-106.49,8.76-224.59-16.1-270.01-109.51c-147.37-303.06-292.83-610.47-324.32-953.18
			c-12.6-137.17,31.37-217.42,101.2-223.31c95.37-8.04,152.25,57.69,184.51,126.72
			C9020.04,13670.44,9116.79,13779.37,9207.57,13894.03z"/>
		<path class="st11" d="M4173.58,13334.24c112.08,324.95,195.78,654.27,154.2,1002.98c-139.16-76.99-190.63-222.44-261.01-349.13
			c-110.54-198.97-221.6-397-357.52-579.79c-77.83-104.69-120.99-217.51-104.68-349.42c6.69-54.1,71.59-96.04,127.21-83.75
			c57.66,12.75,110.61,36.15,140.79,87.45C3944.8,13185.38,4058.99,13259.55,4173.58,13334.24z"/>
		<path class="st5" d="M6934.68,14743.53c20.43-42.78,52.66-73.23,99.18-83.01c78.69-16.55,116.98-65.63,111.21-143.03
			c-16.54-221.95,181.9-323.14,270.52-485.78c17.15-31.49,91.43-4.51,112.26,33.89c45.35,83.64,32.43,175.08,39.5,263.46
			c-106.58,76.62-96.18,219.16-181.61,313.29C7206.44,14839.9,7199,14848,6934.68,14743.53z"/>
		<path class="st12" d="M5778.87,11786.22c-38.65,186.59-73.65,371.21-166.69,544.78c-62.24,116.1-82.11,256.5-111.55,388.13
			c-24.96,111.58-44.73,222.15-144.82,295.39c-37.08-31.45-58.75-73.66-44.03-118.95c107.39-330.4,218.74-659.51,326.6-989.76
			C5661.65,11834.54,5697.91,11786.07,5778.87,11786.22z"/>
		<path class="st13" d="M5218.22,14182.31c44.44-3.82,88.88-7.65,133.26-11.52c11.59,135.97,12.68,271.41-49.35,397.45
			c-39.84,80.96,49.85,210.37-94.6,251.16c-78.68-80.57-19.6-168.04-16.87-254.11c2.08-65.56-25.45-131.5-31.55-198.03
			C5152.89,14299.34,5158.99,14231.24,5218.22,14182.31z"/>
		<path class="st12" d="M6050.6,12817.39c-56.71,115.8-92.79,242.83-184.22,338.7c-68.55,27.03-137.56,54.84-206.46,82.74
			c17.78-178.6,47.68-259.5,184.62-499.19C5908.16,12778.99,5968.94,12825.83,6050.6,12817.39z"/>
		<path class="st11" d="M4342.78,14388.41c84.88-2.62,169.77-5.24,254.55-7.92c18.46,147.93-15.3,273.04-154.38,352.24
			C4294.49,14651.36,4296.27,14526.38,4342.78,14388.41z"/>
		<path class="st13" d="M5280.6,13349.6c16.86,97.62,34.53,195.35-35.79,281.87c-91.49-47.85-122.83-148.71-191.07-217.46
			c-0.08-0.3-0.43-6.45-0.56-6.27C5128.9,13388.47,5204.75,13369.04,5280.6,13349.6z"/>
		<path class="st12" d="M9064.25,11830.52c-11.65,67.39-9.27,143.74-101.75,159.44c-57.17-23.69-90-64.71-53.54-122.26
			C8944.54,11811.52,8995.09,11769.42,9064.25,11830.52z"/>
		<path class="st12" d="M4473.87,14794.02c89.8,1.07,179.6,2.14,269.4,3.22c-10.43,93.03-68.75,132.77-155.65,128.49
			C4508.73,14921.84,4478.52,14866.76,4473.87,14794.02z"/>
		<path class="st13" d="M5886.13,11424.29c24.84,63.12,12.04,113.89-48.89,148.86C5777.4,11489.4,5779.54,11482.88,5886.13,11424.29
			z"/>
		<path class="st12" d="M5935.84,12483.65c-19.57-61.9-17.73-117.58,45.21-155.5
			C6036.25,12415.55,6035.47,12418.22,5935.84,12483.65z"/>
		<path class="st12" d="M10216.18,14482.53c52.09-8.4,104.17-16.81,156.27-25.21
			C10318.12,14590,10316.46,14590.26,10216.18,14482.53z"/>
		<path class="st12" d="M7888.31,14641.87c20.46-86.58,74.34-120.55,161.36-102.31
			C8025.1,14619.81,7971.9,14654.84,7888.31,14641.87z"/>
		<path class="st3" d="M10143.96,12601.03c-17.49-24.49-34.98-48.99-52.47-73.22c24.09-0.51,48.18-1.28,72.22-1.59
			C10157.1,12551.46,10150.53,12576.24,10143.96,12601.03z"/>
		<path class="st12" d="M7324.04,6774.48c31,12.75,62,25.5,92.86,37.99c-27.61,2.91-55.07,6.08-82.66,9.15
			C7330.56,6805.88,7327.2,6790.21,7324.04,6774.48z"/>
		<path class="st12" d="M7221.67,6746.84c-1.65-13.42-1.24-26.78,1.33-40.03c21.38,15.22,42.65,30.4,63.9,45.39
			c-0.02-0.19-32.94,1.26-32.94,1.26L7221.67,6746.84z"/>
		<path class="st14" d="M7428.84,6830.33c110.38-0.35,220.77-0.69,331.11-1.13c1,228.53-4.73,457.43,4.77,685.71
			c12.45,299.08-71.56,585.95-101.8,879.5c-10.33,100.25-36.33,200.45-37.04,303.45c-1.1,159.42,5.77,317.79-52.63,473.6
			c-26.73,71.29-15.03,158.11-15.51,237.91c-1.6,262.93-0.17,525.88-1.21,788.81c-0.5,125.25-1.37,248.52-38.22,372.8
			c-28.46,95.98-27.14,202.68-27.78,304.69c-2.73,434.41-0.18,868.84-2.33,1303.25c-0.38,77.38,21.69,160.03-32.94,230.32
			c-228.22-42.85-210.62-45.99-244.89-237.94c-82.89-464.3-62.78-931.32-64.34-1398.15c-0.46-136.64,0.42-271.14,42.91-406.44
			c29.83-95.01,22.39-202.94,24.23-305.24c3.29-182.86,6-365.97-0.05-548.69c-9.88-298.48,64.48-586.6,103.09-878.74
			c41.63-314.96,117.37-624.36,106.45-946.68C7412.99,7402.08,7425.9,7116.03,7428.84,6830.33z"/>
		<path class="st8" d="M6592.68,5599.59c120.66-59.6,231.56-94.37,317.77,59.87c43.09,77.1,133.17,97.5,212.29,71.64
			c113.8-37.21,218.74-25.54,331.38,1.39c63.04,15.07,141.27,10.28,201.11-14.01c121.78-49.42,245.8-50.25,370.46-43.73
			c138.38,7.24,246.97-38.92,321.99-153.75c58.58-89.67,132.62-188.81,239.25-156.12c119.71,36.7,134.76,168.43,136.15,285.09
			c0.54,45.42-0.85,91.63-8.65,136.2c-15.5,88.62-71.78,142.01-160.18,153.14c-102.02,12.83-206.31,21.5-302.98-24.14
			c-110.29-52.07-197.35-21.09-276.48,61.4c-39.43,41.11-81.59,79.78-124.42,117.38c-55.69,48.89-122.99,67.45-190.6,37.78
			c-173.67-76.21-327.39-55.34-479.15,61.06c-65.38,50.15-162.3,46.46-225.71-7.78c-102.92-88.02-198.7-88.44-309.52-24.46
			c-58.12,33.56-124.56,71.48-179.27-8.25c-46.5-67.75-82.81-138.61-31.51-221.2c35.95-57.89,68.51-118.16,108.15-173.39
			c35.07-48.86,50.57-100.94,50.02-159.57C6592.79,5598.1,6592.68,5599.59,6592.68,5599.59z"/>
		<path class="st8" d="M6666.49,5098.64c-1.49-69.5,1.64-139.29,56.77-189.87c33.64-30.85,77.13-56.4,119.28-13.79
			c31.59,31.94,53.25,73.6,84.31,106.19c128.87,135.24,151.8,142.47,319.17,53.33c64.25-34.22,117.54-60.15,189.67-27.18
			c101,46.16,198.72,26.73,294.35-24.9c90.84-49.05,177.9-81.4,290.29-35.64c120.6,49.09,244.46,24.36,351.06-65.68
			c54.54-46.08,125.63-68.77,180.93-2.41c55.31,66.37,30.88,195.41-37.48,245.12c-18.16,13.21-38.14,31.74-58.3,33.14
			c-149.18,10.34-263.52,60-301.28,223.96c-10.66,46.32-63.36,62.12-111.25,61.07c-33.7-0.74-71.61,0.58-100.12-13.87
			c-115.26-58.38-214.74-46.81-313.31,39.98c-67.48,59.41-151.21,58.69-217.84-2.78c-95.68-88.28-177.95-72.41-269.31,5.7
			c-34.08,29.14-94.07,38.07-114.55-17.61c-35.66-96.94-96.94-133.1-198.44-154.69C6696.99,5290.31,6669.79,5232.71,6666.49,5098.64
			z"/>
		<path class="st10" d="M8376.41,4510.09c-10.64,187.71-187.1,313.24-359.26,251.41c-41.5-14.91-76.21-48.39-114.51-72.6
			c-54.65-34.54-108.16-30.79-155.18,12.61c-101.78,93.96-197.25,197.59-356.8,106.29c-40.55-23.2-83.93,8.52-126.1,27.97
			c-156.63,72.23-168.36,76.65-244.21-40.3c-61.95-95.52-136.39-136.94-244.22-160.09c-111.9-24.02-135.49-116.6-79.18-242.46
			c14.1-31.51,44.68-56.34,79.61-32.51c26.7,18.21,44.75,49.51,65.6,75.82c85.23,107.59,176.69,152.49,324.92,102.52
			c158.83-53.54,334.92-51.54,485.34-142.73c50.65-30.71,110.33-23.4,164.25,1.88c125.83,58.96,239.48,47.2,348.17-44.34
			C8263.64,4270.35,8384.55,4369.58,8376.41,4510.09z"/>
		<path class="st10" d="M8449.06,2722.87c-0.74,68.41,3.82,137.36-3.33,205.1c-14.2,134.6-64.97,192.76-186.9,202.5
			c-156.99,12.55-321.25-17.5-453.1,107.76c-17.17,16.31-71.74,14.17-95.52-0.81c-154.32-97.22-278.49-96.68-421.18,44.8
			c-98.35,97.51-254.26-18.15-382.71,17.63c-38.67-146.94-168.16-160.74-284.03-200.85c-55.16-19.1-84.75-76.44-87.54-136.78
			c-4.73-102.38-4.26-205-5.98-307.52c138.96-7.22,269.76,2.04,368.24,123.93c53.02,65.63,132.92,96.38,213.24,59.27
			c129.98-60.06,265.42-45.3,399.78-45.66c131.59-0.35,257.75-86.03,395.37-15.35c51.3,26.34,114.93-2.68,158.68-37.17
			C8190.49,2640.07,8319.45,2694.29,8449.06,2722.87z"/>
		<path class="st10" d="M8378.39,3527.23c-2.37,107.33-48.2,162.46-141.43,138.39c-91.79-23.69-172.56-32.74-263.46,3.21
			c-49.74,19.67-119.5,26.71-166.98,7.2c-161.6-66.42-301.85-51.98-442.51,55.11c-38.27,29.14-109.56,14.71-165.65,20.73
			c-78.47,8.42-161.5,3.92-234.28,29.02c-112.62,38.85-197.62,45.99-242.1-89.16c-19.91-60.51-85.37-67.79-132.41-97.1
			c-53.99-33.63-60.97-90.34-53.06-149.84c7.27-54.67,58.86-97.01,89.33-73.19c169.5,132.53,363.69,107.49,554.74,103.17
			c55.33-1.25,115.95-9.58,164.24-34.14c125.87-64.02,246.43-101.12,388.36-41.97c43.96,18.32,112.5-4.82,163.61-24.77
			c110.51-43.15,223.45-36.47,336.41-30.3C8344.12,3349.65,8381.2,3400.38,8378.39,3527.23z"/>
		<path class="st1" d="M7082.24,6777.4c-9.77-10.41-19.54-20.82-29.32-31.23c10.27,9.92,20.54,19.83,30.88,29.78
			C7083.87,6775.98,7082.24,6777.4,7082.24,6777.4z"/>
	</g>
</g>
</svg>
